<svg xmlns="http://www.w3.org/2000/svg" width="2402.674" height="1771.202" viewBox="0 0 2402.674 1771.202">
  <g id="Grupo_942" data-name="Grupo 942" transform="translate(434.684 -130.41)">
    <path id="Trazado_2100" data-name="Trazado 2100" d="M-62.013,503.479l6.931,60q-47.988,14.86-117.82,14.863-85.3,0-119.957-42.474T-327.507,388.8q0-104.594,34.648-147.078,34.652-42.46,119.957-42.474,61.836,0,110.356,12.215l-6.93,60.525q-43.184-2.652-103.426-2.649-39.988,0-54.646,25.217T-242.211,388.8q0,69.026,14.664,94.243,14.648,25.225,54.646,25.218,74.1,0,110.889-4.779" transform="translate(653.929 419.996)" fill="#00181d"/>
    <rect id="Rectángulo_1185" data-name="Rectángulo 1185" width="78.372" height="261.759" transform="translate(677.509 730.209)" fill="#00181d"/>
    <path id="Trazado_2101" data-name="Trazado 2101" d="M-134.819,393.286V403.37q0,27.078,30.92,27.078,31.989,0,65.582-25.487V368.325h-70.915q-25.586.543-25.587,24.961M-192.4,279.664l-7.464-53.1q70.9-12.74,137.015-12.74,53.3,0,78.371,21.5,25.043,21.507,25.061,74.6V483.013H-21.793l-8-39.818q-39.466,46.2-97.034,46.188-37.858,0-61.839-19.912-24-19.9-24-55.484V387.442q0-31.317,21.333-48.844,21.315-17.523,59.176-17.519h93.831V309.4q-.543-20.175-9.339-27.078t-33.852-6.9q-43.716,0-110.889,4.247" transform="translate(1354.672 508.955)" fill="#00181d"/>
    <path id="Trazado_2102" data-name="Trazado 2102" d="M82.829,214.872V476.631H20.45l-5.866-36.1q-54.379,43-108.759,43.006-74.107,0-74.1-72.74V214.872h78.9V386.9q-.532,17,5.873,23.9t22.384,6.9q22.913,0,65.575-21.773V214.872Z" transform="translate(1625.454 515.337)" fill="#00181d"/>
    <path id="Trazado_2103" data-name="Trazado 2103" d="M.552,330.386V454.1q0,14.86,6.4,20.7,6.391,5.859,22.391,5.844H62.924l8.536,54.689Q41.069,545.943-2.651,545.95q-35.717,0-55.441-19.913t-19.728-55.483V330.386H-124.2V280.477l46.38-2.656V204.555H.552V277.82H73.59v52.565Z" transform="translate(1894.4 452.388)" fill="#00181d"/>
    <path id="Trazado_2104" data-name="Trazado 2104" d="M-120.063,268.761c-2.457-44.647-39.42-80.616-84.6-81.667a86.87,86.87,0,0,0-78.322,45.058q28.357,5.039,56.464,10.951,53.666,11.313,106.458,25.658" transform="translate(925.583 345.702)" fill="#00181d"/>
    <path id="Trazado_2105" data-name="Trazado 2105" d="M-227.433,209.13q-28.42-4.634-56.94-8.344A87.037,87.037,0,0,0-200.5,276.3a86.825,86.825,0,0,0,71.242-33.966L3.583,261.709q-19.866-5.752-39.839-11.114c-63.132-16.923-126.938-30.941-191.178-41.465" transform="translate(917.108 429.392)" fill="#00181d"/>
    <path id="Trazado_2106" data-name="Trazado 2106" d="M-182.329,270.687l28.746,10.624V199.4h-78.9v53.736q25.149,8.575,50.158,17.555" transform="translate(1233.687 420.911)" fill="#00181d"/>
    <path id="Trazado_2107" data-name="Trazado 2107" d="M-74.919,413.493q-18.662,12.228-30.394,16.731t-28.25,4.509q-24.521,0-34.122-15.126t-9.594-60.27q0-47.242,9.864-62.123,9.864-14.849,36.516-14.863,20.261,0,55.98,10.091ZM54.413,253.767l-14.821-5.355-14.934-5.063L-5.225,233.315-35.3,223.856q-19.557-5.987-39.207-11.689c.412,11.249,1.136,22.924,2.259,35.145q-34.662-23.36-85.3-23.364-51.717,0-76.241,30.266T-258.313,359.87q0,69.026,22.121,104.335t71.178,35.308q62.379,0,100.223-44.6l6.4,38.227H3.986V248.143l53.729,6.825q-1.651-.6-3.3-1.2" transform="translate(1076.111 498.833)" fill="#00181d"/>
    <path id="Trazado_2108" data-name="Trazado 2108" d="M-343.426,261.258l7.8-1.214,15.573-2.4,15.594-2.031,7.791-1.009,7.8-.838,15.588-1.676c41.565-3.906,83.072-5.631,124.4-5.539,33.562.163,67,1.491,100.308,3.785A158.438,158.438,0,0,0-201.4,130.414C-280.955,129.881-347.318,188-359.1,264.063c2.628-.476,5.262-.93,7.89-1.413Z" transform="translate(461.172 0)" fill="#50ada9"/>
    <path id="Trazado_2109" data-name="Trazado 2109" d="M-162.616,624.221c-28.747-30.409-56.485-61.939-82.717-94.961a1174.586,1174.586,0,0,1-74.026-103.34A893.517,893.517,0,0,1-380.936,312.5a681.389,681.389,0,0,1-32.524-88.164L-353.1,452.273a261.22,261.22,0,0,0-28.526,120.355C-380.95,713-267.98,829.168-127.13,834.2A263.948,263.948,0,0,0,22.156,794.648l-1.228-.994c-64.4-52.408-126.022-108.638-183.544-169.433" transform="translate(129.491 573.093)" fill="#00181d"/>
    <path id="Trazado_2110" data-name="Trazado 2110" d="M-301.652,372.4c24.955,28.64,51.507,56.172,79.082,82.8,55.2,53.24,114.624,102.751,176.833,148.8q4.377,3.248,8.777,6.448A261.18,261.18,0,0,0-12.254,500.989c.973-145.288-116.5-263.861-262.391-264.834a263.954,263.954,0,0,0-112.763,24.3q7.617,11.632,15.68,23.066A1045.521,1045.521,0,0,0-301.652,372.4" transform="translate(288.44 645.158)" fill="#50ada9"/>
    <path id="Trazado_2111" data-name="Trazado 2111" d="M-302.291,456.885a365.766,365.766,0,0,1,13.486-69.154,349.1,349.1,0,0,1,27.035-65.426,347.729,347.729,0,0,1,39.541-58.225,385.775,385.775,0,0,1,49.049-48.787,443.764,443.764,0,0,1,46.962-34.072,211.09,211.09,0,0,0-97.972-23.513c-115.846.426-210.344,94.861-210.494,210.224-.106,89.8,56.343,166.671,136.007,196.937-2.01-12.719-3.551-25.587-4.445-38.6a415.1,415.1,0,0,1,.831-69.381" transform="translate(0 166.547)" fill="#50ada9"/>
    <path id="Trazado_2112" data-name="Trazado 2112" d="M-157.009,158.768c-38.98,1.683-77.732,5.092-115.959,10.446l-14.288,2.194-7.137,1.094-7.095,1.257-14.189,2.514-14.082,2.826-7.031,1.427-6.981,1.584c-4.588,1.051-9.189,2.045-13.756,3.146a158.537,158.537,0,0,0,144.394,95.074A158.547,158.547,0,0,0-64.583,180.385L94.539,168.873c-44.654-5.056-89.386-8.55-134.061-10.2-39.271-1.449-78.492-1.5-117.487.093" transform="translate(470.775 165.785)" fill="#00181d"/>
    <path id="Trazado_2113" data-name="Trazado 2113" d="M-89.39,242.451c-3-54.34-47.977-98.106-102.964-99.392A105.714,105.714,0,0,0-287.662,197.9q34.481,6.125,68.713,13.322,65.3,13.773,129.559,31.232" transform="translate(897.04 76.996)" fill="#50ada9"/>
    <path id="Trazado_2114" data-name="Trazado 2114" d="M-220.064,169.884q-34.588-5.646-69.288-10.162c6.5,50.7,49.667,90.572,102.076,91.9a105.677,105.677,0,0,0,86.7-41.337L61.09,233.868q-24.18-7-48.489-13.521c-76.823-20.6-154.492-37.666-232.665-50.463" transform="translate(886.729 178.842)" fill="#00181d"/>
    <path id="Trazado_2115" data-name="Trazado 2115" d="M-185.919,216.55A52.733,52.733,0,0,0-156,208.838a16.789,16.789,0,0,1,12.229-2.045l41.891,8.884q-66.5-23.85-134.04-44.306a53,53,0,0,0,50,45.179" transform="translate(1212.741 249.918)" fill="#00181d"/>
    <path id="Trazado_2116" data-name="Trazado 2116" d="M-193.319,163.009a52.814,52.814,0,0,0-40.506,15.41q45.389,16,90.132,33.561a52.926,52.926,0,0,0-49.625-48.972" transform="translate(1225.523 198.365)" fill="#50ada9"/>
    <path id="Trazado_2117" data-name="Trazado 2117" d="M-242.248,242.024v-.007l105.087-78.94L-194.421,184.8c-36.111,14.3-55.512,25.274-63.892,30.451l-.021-.035q-8.309,4.963-16.3,10.269c-2.329,1.569-4.6,3.188-6.881,4.793l-1.143.746.021.035a345.246,345.246,0,0,0-33.427,26.794c-25.48,23.3-46.166,50.136-60.348,79.8A247.491,247.491,0,0,0-400.1,432.733a304.208,304.208,0,0,0,1.783,50.463,365.47,365.47,0,0,0,9.907,50.974q.862,3.3,1.79,6.59a211.249,211.249,0,0,0,21.055-6c83.861-27.071,144.777-105.194,145.4-197.8a207.775,207.775,0,0,0-22.085-94.939" transform="translate(208.812 199.313)" fill="#00181d"/>
    <path id="Trazado_2118" data-name="Trazado 2118" d="M234.733,608.863c0-176.08-143.329-318.833-320.14-318.833-.355,0-.7.015-1.058.015a318.731,318.731,0,0,0-80.253,9.97A315.66,315.66,0,0,0-316,386.51c.234.142.483.291.724.433v.007h.014q13.848,8.468,27.809,16.759c66.867,39.64,135.694,76.121,205.928,109.689q52.664,25.16,106.365,48.134,53.719,22.9,108.269,43.553c31.225,11.9,68.905,25.985,100.038,35.65l.007.006q1.566-15.733,1.577-31.878" transform="translate(724.15 973.909)" fill="#50ada9"/>
    <path id="Trazado_2119" data-name="Trazado 2119" d="M335.46,689.044c-29.939-11.76-66.242-26.964-95.663-39.726q-57.032-24.7-112.97-51.549Q70.935,570.776,16.215,541.511-93.194,482.956-197.261,414.985c-58.225-38.234-92.618-61.435-147.533-104.562,0,0,62.4,92.169,115.91,149.549-.618,8.082-.966,16.227-.966,24.464,0,176.088,143.336,318.841,320.14,318.841A319.969,319.969,0,0,0,335.751,689.136Z" transform="translate(548.453 1098.335)" fill="#00181d"/>
  </g>
</svg>
